<?xml version="1.0" encoding="UTF-8" standalone="no"?>
<!-- Created with Inkscape (http://www.inkscape.org/) -->

<svg
   width="7.6082726mm"
   height="7.1872878mm"
   viewBox="0 0 7.6082726 7.1872878"
   version="1.1"
   id="svg1"
   xml:space="preserve"
   xmlns="http://www.w3.org/2000/svg"
   xmlns:svg="http://www.w3.org/2000/svg"><defs
     id="defs1" /><g
     id="layer1"
     transform="translate(-28.666007,-101.38855)"><path
       id="path14"
       style="fill:#149073;fill-opacity:1;stroke-width:0.27284"
       d="m 32.210465,101.44802 a 1.8462368,1.8462368 0 0 0 -2.230821,1.24842 l -0.0015,-3.7e-4 -0.01921,0.0738 -0.460423,1.77004 1.539673,0.4005 a 1.8462368,1.8462368 0 0 0 0.242564,0.0813 1.8462368,1.8462368 0 0 0 0.251425,0.0472 l 1.539673,0.40051 0.460424,-1.77004 0.01921,-0.0738 -0.0015,-3.8e-4 a 1.8462368,1.8462368 0 0 0 -1.339745,-2.1772 z m -0.155757,0.59879 a 1.2277758,1.2277758 0 0 1 0.891155,1.44782 l 8.94e-4,2.3e-4 -0.01274,0.049 -0.306231,1.17726 -1.023987,-0.26636 a 1.2277758,1.2277758 0 0 1 -0.167225,-0.0317 1.2277758,1.2277758 0 0 1 -0.161485,-0.0538 l -1.023986,-0.26636 0.30623,-1.17727 0.01274,-0.049 8.93e-4,2.4e-4 a 1.2277758,1.2277758 0 0 1 1.483682,-0.83008 z" /><g
       id="g17"
       transform="rotate(14.580699,46.859182,104.55776)"><path
         id="path15"
         style="fill:#149073;fill-opacity:1;stroke-width:0.264583"
         d="m 29.966161,108.14672 h 3.866306 c 0.103445,0 0.186725,0.0833 0.186725,0.18673 v 2.80797 c 0,0.10345 -0.08328,0.18673 -0.186725,0.18673 h -1.417259 l 0.04199,0.91165 -1.62755,-0.91165 h -0.863489 c -0.103446,0 -0.186725,-0.0833 -0.186725,-0.18673 v -2.80797 c 0,-0.10345 0.08328,-0.18673 0.186725,-0.18673 z" /><g
         id="g16"
         transform="translate(-14.224052,2.8557942)"
         style="fill:#f9f9f9"><path
           id="path16"
           style="fill:#f9f9f9;stroke-width:0.130256"
           d="m 46.134353,106.1776 a 0.35148236,0.35148236 0 0 0 -0.3514,0.3514 0.35148236,0.35148236 0 0 0 0.129708,0.27233 v 0.38189 c 0,0.053 0.04264,0.0956 0.0956,0.0956 h 0.252181 c 0.05296,0 0.0956,-0.0426 0.0956,-0.0956 v -0.38189 a 0.35148236,0.35148236 0 0 0 0.129708,-0.27233 0.35148236,0.35148236 0 0 0 -0.3514,-0.3514 z" /></g></g><path
       id="path17"
       style="fill:#385698;fill-opacity:1;stroke-width:0.27284"
       d="m 33.1369,101.58411 a 1.8462368,1.8462368 0 0 1 2.1295,1.41434 l 0.0015,-2.7e-4 0.01354,0.0751 0.324584,1.79991 -1.565656,0.28234 a 1.8462368,1.8462368 0 0 1 -0.248039,0.0626 1.8462368,1.8462368 0 0 1 -0.254286,0.028 l -1.565656,0.28234 -0.324584,-1.79991 -0.01354,-0.0751 0.0015,-2.7e-4 a 1.8462368,1.8462368 0 0 1 1.501321,-2.06909 z m 0.109803,0.60889 a 1.2277758,1.2277758 0 0 0 -0.9986,1.37592 l -9.09e-4,1.6e-4 0.009,0.0498 0.215883,1.19713 1.041267,-0.18778 a 1.2277758,1.2277758 0 0 0 0.169151,-0.0189 1.2277758,1.2277758 0 0 0 0.165106,-0.0414 l 1.041267,-0.18777 -0.215883,-1.19713 -0.009,-0.0498 -9.09e-4,1.6e-4 a 1.2277758,1.2277758 0 0 0 -1.416313,-0.94042 z" /><g
       id="g20"
       transform="rotate(-10.222491,11.678361,108.05392)"><path
         id="path18"
         style="fill:#385698;fill-opacity:1;stroke-width:0.264583"
         d="M 35.877696,108.40591 H 32.01139 c -0.103445,0 -0.186725,0.0833 -0.186725,0.18673 v 2.80797 c 0,0.10345 0.08328,0.18673 0.186725,0.18673 h 1.417259 l -0.04199,0.91165 1.62755,-0.91165 h 0.863489 c 0.103446,0 0.186725,-0.0833 0.186725,-0.18673 v -2.80797 c 0,-0.10345 -0.08328,-0.18673 -0.186725,-0.18673 z" /><g
         id="g19"
         transform="matrix(-1,0,0,1,80.067908,3.1149903)"
         style="fill:#f9f9f9"><path
           id="path19"
           style="fill:#f9f9f9;stroke-width:0.130256"
           d="m 46.134353,106.1776 a 0.35148236,0.35148236 0 0 0 -0.3514,0.3514 0.35148236,0.35148236 0 0 0 0.129708,0.27233 v 0.38189 c 0,0.053 0.04264,0.0956 0.0956,0.0956 h 0.252181 c 0.05296,0 0.0956,-0.0426 0.0956,-0.0956 v -0.38189 a 0.35148236,0.35148236 0 0 0 0.129708,-0.27233 0.35148236,0.35148236 0 0 0 -0.3514,-0.3514 z" /></g></g><path
       id="path20"
       style="fill:#149073;fill-opacity:1;stroke-width:0.27284"
       d="m 32.084554,101.41971 v 0.6351 a 1.2277758,1.2277758 0 0 1 0.770496,0.65371 h 0.659908 a 1.8462368,1.8462368 0 0 0 -1.304313,-1.26039 h -5.17e-4 a 1.8462368,1.8462368 0 0 0 -0.125574,-0.0284 z" /></g></svg>
