<?xml version="1.0" encoding="UTF-8" standalone="no"?>
<!-- Created with Inkscape (http://www.inkscape.org/) -->

<svg
   width="210mm"
   height="297mm"
   viewBox="0 0 210 297"
   version="1.1"
   id="svg1"
   xml:space="preserve"
   inkscape:version="1.4.3 (fcd0343856, 2026-01-01)"
   sodipodi:docname="logo.svg"
   xmlns:inkscape="http://www.inkscape.org/namespaces/inkscape"
   xmlns:sodipodi="http://sodipodi.sourceforge.net/DTD/sodipodi-0.dtd"
   xmlns="http://www.w3.org/2000/svg"
   xmlns:svg="http://www.w3.org/2000/svg"><sodipodi:namedview
     id="namedview1"
     pagecolor="#ffffff"
     bordercolor="#000000"
     borderopacity="0.25"
     inkscape:showpageshadow="2"
     inkscape:pageopacity="0.0"
     inkscape:pagecheckerboard="0"
     inkscape:deskcolor="#d1d1d1"
     inkscape:document-units="mm"
     inkscape:zoom="6.0221134"
     inkscape:cx="151.44185"
     inkscape:cy="429.00222"
     inkscape:window-width="1920"
     inkscape:window-height="1043"
     inkscape:window-x="0"
     inkscape:window-y="0"
     inkscape:window-maximized="1"
     inkscape:current-layer="layer1" /><defs
     id="defs1" /><g
     inkscape:label="Layer 1"
     inkscape:groupmode="layer"
     id="layer1"><text
       xml:space="preserve"
       style="font-size:7.50542px;writing-mode:lr-tb;direction:ltr;fill:#385698;stroke-width:0.625451;fill-opacity:1"
       x="36.699993"
       y="121.24236"
       id="text1"><tspan
         sodipodi:role="line"
         id="tspan1"
         style="font-style:normal;font-variant:normal;font-weight:normal;font-stretch:normal;font-family:'Noto Looped Lao';-inkscape-font-specification:'Noto Looped Lao';stroke-width:0.625451;fill:#385698;fill-opacity:1"
         x="36.699993"
         y="121.24236">Poto</tspan></text><text
       xml:space="preserve"
       style="font-size:7.50542px;writing-mode:lr-tb;direction:ltr;fill:#149073;stroke-width:0.625451;fill-opacity:1"
       x="52.575203"
       y="121.3045"
       id="text2"><tspan
         sodipodi:role="line"
         id="tspan2"
         style="font-style:normal;font-variant:normal;font-weight:normal;font-stretch:normal;font-family:'Noto Looped Lao';-inkscape-font-specification:'Noto Looped Lao';fill:#149073;stroke-width:0.625451;fill-opacity:1"
         x="52.575203"
         y="121.3045">K</tspan></text><path
       id="path5"
       style="fill:#149073;stroke-width:0.27284;fill-opacity:1"
       d="m 32.605883,114.89222 a 1.8462368,1.8462368 0 0 0 -2.230821,1.24842 l -0.0015,-3.7e-4 -0.01921,0.0738 -0.460423,1.77004 1.539673,0.4005 a 1.8462368,1.8462368 0 0 0 0.242564,0.0813 1.8462368,1.8462368 0 0 0 0.251425,0.0472 l 1.539673,0.40051 0.460424,-1.77004 0.01921,-0.0738 -0.0015,-3.8e-4 a 1.8462368,1.8462368 0 0 0 -1.339745,-2.1772 z m -0.155757,0.59879 a 1.2277758,1.2277758 0 0 1 0.891155,1.44782 l 8.94e-4,2.3e-4 -0.01274,0.049 -0.306231,1.17726 -1.023987,-0.26636 a 1.2277758,1.2277758 0 0 1 -0.167225,-0.0317 1.2277758,1.2277758 0 0 1 -0.161485,-0.0538 l -1.023986,-0.26636 0.30623,-1.17727 0.01274,-0.049 8.93e-4,2.4e-4 a 1.2277758,1.2277758 0 0 1 1.483682,-0.83008 z" /><g
       id="g11"
       transform="rotate(14.580699,-5.4875301,112.82528)"><path
         id="rect4"
         style="fill:#149073;stroke-width:0.264583;fill-opacity:1"
         d="m 29.966161,108.14672 h 3.866306 c 0.103445,0 0.186725,0.0833 0.186725,0.18673 v 2.80797 c 0,0.10345 -0.08328,0.18673 -0.186725,0.18673 h -1.417259 l 0.04199,0.91165 -1.62755,-0.91165 h -0.863489 c -0.103446,0 -0.186725,-0.0833 -0.186725,-0.18673 v -2.80797 c 0,-0.10345 0.08328,-0.18673 0.186725,-0.18673 z"
         sodipodi:nodetypes="ssssscccssss" /><g
         id="g6"
         transform="translate(-14.224052,2.8557942)"
         style="fill:#f9f9f9"><path
           id="path6"
           style="fill:#f9f9f9;stroke-width:0.130256"
           d="m 46.134353,106.1776 a 0.35148236,0.35148236 0 0 0 -0.3514,0.3514 0.35148236,0.35148236 0 0 0 0.129708,0.27233 v 0.38189 c 0,0.053 0.04264,0.0956 0.0956,0.0956 h 0.252181 c 0.05296,0 0.0956,-0.0426 0.0956,-0.0956 v -0.38189 a 0.35148236,0.35148236 0 0 0 0.129708,-0.27233 0.35148236,0.35148236 0 0 0 -0.3514,-0.3514 z" /></g></g><path
       id="path8"
       style="fill:#385698;stroke-width:0.27284;fill-opacity:1"
       d="m 33.532318,115.02831 a 1.8462368,1.8462368 0 0 1 2.1295,1.41434 l 0.0015,-2.7e-4 0.01354,0.0751 0.324584,1.79991 -1.565656,0.28234 a 1.8462368,1.8462368 0 0 1 -0.248039,0.0626 1.8462368,1.8462368 0 0 1 -0.254286,0.028 l -1.565656,0.28234 -0.324584,-1.79991 -0.01354,-0.0751 0.0015,-2.7e-4 a 1.8462368,1.8462368 0 0 1 1.501321,-2.06909 z m 0.109803,0.60889 a 1.2277758,1.2277758 0 0 0 -0.9986,1.37592 l -9.09e-4,1.6e-4 0.009,0.0498 0.215883,1.19713 1.041267,-0.18778 a 1.2277758,1.2277758 0 0 0 0.169151,-0.0189 1.2277758,1.2277758 0 0 0 0.165106,-0.0414 l 1.041267,-0.18777 -0.215883,-1.19713 -0.009,-0.0498 -9.09e-4,1.6e-4 a 1.2277758,1.2277758 0 0 0 -1.416313,-0.94042 z" /><g
       id="g10"
       transform="rotate(-10.222491,87.029132,112.56564)"><path
         id="path7"
         style="fill:#385698;stroke-width:0.264583;fill-opacity:1"
         d="M 35.877696,108.40591 H 32.01139 c -0.103445,0 -0.186725,0.0833 -0.186725,0.18673 v 2.80797 c 0,0.10345 0.08328,0.18673 0.186725,0.18673 h 1.417259 l -0.04199,0.91165 1.62755,-0.91165 h 0.863489 c 0.103446,0 0.186725,-0.0833 0.186725,-0.18673 v -2.80797 c 0,-0.10345 -0.08328,-0.18673 -0.186725,-0.18673 z"
         sodipodi:nodetypes="ssssscccssss" /><g
         id="g9"
         transform="matrix(-1,0,0,1,80.067908,3.1149903)"
         style="fill:#f9f9f9"><path
           id="path9"
           style="fill:#f9f9f9;stroke-width:0.130256"
           d="m 46.134353,106.1776 a 0.35148236,0.35148236 0 0 0 -0.3514,0.3514 0.35148236,0.35148236 0 0 0 0.129708,0.27233 v 0.38189 c 0,0.053 0.04264,0.0956 0.0956,0.0956 h 0.252181 c 0.05296,0 0.0956,-0.0426 0.0956,-0.0956 v -0.38189 a 0.35148236,0.35148236 0 0 0 0.129708,-0.27233 0.35148236,0.35148236 0 0 0 -0.3514,-0.3514 z" /></g></g><path
       id="path11"
       style="fill:#149073;stroke-width:0.27284;fill-opacity:1"
       d="m 32.479972,114.86391 v 0.6351 a 1.2277758,1.2277758 0 0 1 0.770496,0.65371 h 0.659908 a 1.8462368,1.8462368 0 0 0 -1.304313,-1.26039 h -5.17e-4 a 1.8462368,1.8462368 0 0 0 -0.125574,-0.0284 z" /><path
       style="font-size:7.50542px;font-family:'Noto Looped Lao';-inkscape-font-specification:'Noto Looped Lao';fill:#385698;stroke-width:0.625451"
       d="m 37.781474,102.93503 v 2.05592 h 0.930848 q 0.51673,0 0.798916,-0.26752 0.282187,-0.26753 0.282187,-0.76227 0,-0.49108 -0.282187,-0.75861 -0.282186,-0.26752 -0.798916,-0.26752 z m -0.740281,-0.60835 h 1.671129 q 0.919853,0 1.388942,0.41778 0.472754,0.41412 0.472754,1.2167 0,0.80991 -0.472754,1.22403 -0.469089,0.41411 -1.388942,0.41411 h -0.930848 v 2.19886 h -0.740281 z m 5.819632,1.8397 q -0.542384,0 -0.857553,0.42512 -0.315169,0.42144 -0.315169,1.15806 0,0.73661 0.311504,1.16173 0.315169,0.42144 0.861218,0.42144 0.538719,0 0.853888,-0.42511 0.315169,-0.42511 0.315169,-1.15806 0,-0.72929 -0.315169,-1.1544 -0.315169,-0.42878 -0.853888,-0.42878 z m 0,-0.5717 q 0.879542,0 1.381613,0.5717 0.502072,0.57171 0.502072,1.58318 0,1.00781 -0.502072,1.58317 -0.502071,0.5717 -1.381613,0.5717 -0.883206,0 -1.385278,-0.5717 -0.498406,-0.57536 -0.498406,-1.58317 0,-1.01147 0.498406,-1.58318 0.502072,-0.5717 1.385278,-0.5717 z m 3.668421,-1.06644 v 1.16539 h 1.388943 v 0.52406 h -1.388943 v 2.22817 q 0,0.50207 0.135596,0.645 0.139261,0.14292 0.560708,0.14292 h 0.692639 v 0.56438 H 47.22555 q -0.780593,0 -1.077439,-0.28952 -0.296845,-0.29318 -0.296845,-1.06278 v -2.22817 h -0.494742 v -0.52406 h 0.494742 v -1.16539 z m 3.866317,1.63814 q -0.542384,0 -0.857553,0.42512 -0.315169,0.42144 -0.315169,1.15806 0,0.73661 0.311504,1.16173 0.31517,0.42144 0.861218,0.42144 0.538719,0 0.853888,-0.42511 0.315169,-0.42511 0.315169,-1.15806 0,-0.72929 -0.315169,-1.1544 -0.315169,-0.42878 -0.853888,-0.42878 z m 0,-0.5717 q 0.879542,0 1.381613,0.5717 0.502072,0.57171 0.502072,1.58318 0,1.00781 -0.502072,1.58317 -0.502071,0.5717 -1.381613,0.5717 -0.883206,0 -1.385278,-0.5717 -0.498406,-0.57536 -0.498406,-1.58317 0,-1.01147 0.498406,-1.58318 0.502072,-0.5717 1.385278,-0.5717 z"
       id="text13"
       aria-label="Poto" /><path
       style="font-size:7.50542px;font-family:'Noto Looped Lao';-inkscape-font-specification:'Noto Looped Lao';fill:#149073;stroke-width:0.625451"
       d="m 52.916403,102.38882 h 0.74028 v 2.31246 l 2.455387,-2.31246 h 0.952836 l -2.715584,2.55067 2.909816,2.92081 h -0.974825 l -2.62763,-2.63496 v 2.63496 h -0.74028 z"
       id="text14"
       aria-label="K" /><path
       id="path14"
       style="fill:#149073;fill-opacity:1;stroke-width:0.27284"
       d="m 32.210465,101.44802 a 1.8462368,1.8462368 0 0 0 -2.230821,1.24842 l -0.0015,-3.7e-4 -0.01921,0.0738 -0.460423,1.77004 1.539673,0.4005 a 1.8462368,1.8462368 0 0 0 0.242564,0.0813 1.8462368,1.8462368 0 0 0 0.251425,0.0472 l 1.539673,0.40051 0.460424,-1.77004 0.01921,-0.0738 -0.0015,-3.8e-4 a 1.8462368,1.8462368 0 0 0 -1.339745,-2.1772 z m -0.155757,0.59879 a 1.2277758,1.2277758 0 0 1 0.891155,1.44782 l 8.94e-4,2.3e-4 -0.01274,0.049 -0.306231,1.17726 -1.023987,-0.26636 a 1.2277758,1.2277758 0 0 1 -0.167225,-0.0317 1.2277758,1.2277758 0 0 1 -0.161485,-0.0538 l -1.023986,-0.26636 0.30623,-1.17727 0.01274,-0.049 8.93e-4,2.4e-4 a 1.2277758,1.2277758 0 0 1 1.483682,-0.83008 z" /><g
       id="g17"
       transform="rotate(14.580699,46.859182,104.55776)"><path
         id="path15"
         style="fill:#149073;fill-opacity:1;stroke-width:0.264583"
         d="m 29.966161,108.14672 h 3.866306 c 0.103445,0 0.186725,0.0833 0.186725,0.18673 v 2.80797 c 0,0.10345 -0.08328,0.18673 -0.186725,0.18673 h -1.417259 l 0.04199,0.91165 -1.62755,-0.91165 h -0.863489 c -0.103446,0 -0.186725,-0.0833 -0.186725,-0.18673 v -2.80797 c 0,-0.10345 0.08328,-0.18673 0.186725,-0.18673 z"
         sodipodi:nodetypes="ssssscccssss" /><g
         id="g16"
         transform="translate(-14.224052,2.8557942)"
         style="fill:#f9f9f9"><path
           id="path16"
           style="fill:#f9f9f9;stroke-width:0.130256"
           d="m 46.134353,106.1776 a 0.35148236,0.35148236 0 0 0 -0.3514,0.3514 0.35148236,0.35148236 0 0 0 0.129708,0.27233 v 0.38189 c 0,0.053 0.04264,0.0956 0.0956,0.0956 h 0.252181 c 0.05296,0 0.0956,-0.0426 0.0956,-0.0956 v -0.38189 a 0.35148236,0.35148236 0 0 0 0.129708,-0.27233 0.35148236,0.35148236 0 0 0 -0.3514,-0.3514 z" /></g></g><path
       id="path17"
       style="fill:#385698;fill-opacity:1;stroke-width:0.27284"
       d="m 33.1369,101.58411 a 1.8462368,1.8462368 0 0 1 2.1295,1.41434 l 0.0015,-2.7e-4 0.01354,0.0751 0.324584,1.79991 -1.565656,0.28234 a 1.8462368,1.8462368 0 0 1 -0.248039,0.0626 1.8462368,1.8462368 0 0 1 -0.254286,0.028 l -1.565656,0.28234 -0.324584,-1.79991 -0.01354,-0.0751 0.0015,-2.7e-4 a 1.8462368,1.8462368 0 0 1 1.501321,-2.06909 z m 0.109803,0.60889 a 1.2277758,1.2277758 0 0 0 -0.9986,1.37592 l -9.09e-4,1.6e-4 0.009,0.0498 0.215883,1.19713 1.041267,-0.18778 a 1.2277758,1.2277758 0 0 0 0.169151,-0.0189 1.2277758,1.2277758 0 0 0 0.165106,-0.0414 l 1.041267,-0.18777 -0.215883,-1.19713 -0.009,-0.0498 -9.09e-4,1.6e-4 a 1.2277758,1.2277758 0 0 0 -1.416313,-0.94042 z" /><g
       id="g20"
       transform="rotate(-10.222491,11.678361,108.05392)"><path
         id="path18"
         style="fill:#385698;fill-opacity:1;stroke-width:0.264583"
         d="M 35.877696,108.40591 H 32.01139 c -0.103445,0 -0.186725,0.0833 -0.186725,0.18673 v 2.80797 c 0,0.10345 0.08328,0.18673 0.186725,0.18673 h 1.417259 l -0.04199,0.91165 1.62755,-0.91165 h 0.863489 c 0.103446,0 0.186725,-0.0833 0.186725,-0.18673 v -2.80797 c 0,-0.10345 -0.08328,-0.18673 -0.186725,-0.18673 z"
         sodipodi:nodetypes="ssssscccssss" /><g
         id="g19"
         transform="matrix(-1,0,0,1,80.067908,3.1149903)"
         style="fill:#f9f9f9"><path
           id="path19"
           style="fill:#f9f9f9;stroke-width:0.130256"
           d="m 46.134353,106.1776 a 0.35148236,0.35148236 0 0 0 -0.3514,0.3514 0.35148236,0.35148236 0 0 0 0.129708,0.27233 v 0.38189 c 0,0.053 0.04264,0.0956 0.0956,0.0956 h 0.252181 c 0.05296,0 0.0956,-0.0426 0.0956,-0.0956 v -0.38189 a 0.35148236,0.35148236 0 0 0 0.129708,-0.27233 0.35148236,0.35148236 0 0 0 -0.3514,-0.3514 z" /></g></g><path
       id="path20"
       style="fill:#149073;fill-opacity:1;stroke-width:0.27284"
       d="m 32.084554,101.41971 v 0.6351 a 1.2277758,1.2277758 0 0 1 0.770496,0.65371 h 0.659908 a 1.8462368,1.8462368 0 0 0 -1.304313,-1.26039 h -5.17e-4 a 1.8462368,1.8462368 0 0 0 -0.125574,-0.0284 z" /></g></svg>
